<svg xmlns="http://www.w3.org/2000/svg" xmlns:xlink="http://www.w3.org/1999/xlink" width="500" zoomAndPan="magnify" viewBox="0 0 375 374.999991" height="500" preserveAspectRatio="xMidYMid meet" version="1.0"><defs><clipPath id="id1"><path d="M 22.039062 22.039062 L 352.789062 22.039062 L 352.789062 352.789062 L 22.039062 352.789062 Z M 22.039062 22.039062 " clip-rule="nonzero"/></clipPath></defs><g clip-path="url(#id1)"><path fill="rgb(0%, 0%, 0%)" d="M 187.269531 21.941406 C 95.960938 21.941406 21.941406 95.960938 21.941406 187.269531 C 21.941406 278.582031 95.960938 352.601562 187.269531 352.601562 C 278.582031 352.601562 352.601562 278.582031 352.601562 187.269531 C 352.601562 95.960938 278.582031 21.941406 187.269531 21.941406 Z M 187.269531 87.132812 C 214.855469 87.132812 237.226562 109.5 237.226562 137.09375 C 237.226562 164.683594 214.859375 187.050781 187.269531 187.050781 C 159.675781 187.050781 137.308594 164.683594 137.308594 137.09375 C 137.308594 109.5 159.675781 87.132812 187.269531 87.132812 Z M 187.742188 276.546875 L 114.371094 276.546875 C 114.371094 227.3125 141.160156 209.785156 158.730469 194.054688 C 167.238281 198.628906 176.953125 201.253906 187.269531 201.328125 C 197.582031 201.253906 207.289062 198.628906 215.800781 194.054688 C 233.375 209.789062 260.160156 227.316406 260.160156 276.546875 Z M 187.742188 276.546875 " fill-opacity="1" fill-rule="nonzero"/></g></svg>